<svg xmlns="http://www.w3.org/2000/svg" data-name="Layer 1" viewBox="0 0 64 80" x="0px" y="0px"><path d="M51.92,55.41H12.08a3.5,3.5,0,0,1-3.49-3.49V12.08a3.5,3.5,0,0,1,3.49-3.49H51.92a3.5,3.5,0,0,1,3.49,3.49V51.92A3.5,3.5,0,0,1,51.92,55.41ZM12.08,10.59a1.49,1.49,0,0,0-1.49,1.49V51.92a1.49,1.49,0,0,0,1.49,1.49H51.92a1.49,1.49,0,0,0,1.49-1.49V12.08a1.49,1.49,0,0,0-1.49-1.49Z"/><rect x="9.59" y="19.59" width="44.82" height="2"/><rect x="18.7" y="4.59" width="2" height="5"/><rect x="42.66" y="4.59" width="2" height="5"/><path d="M23.29,35.08H15.14V26.92h8.15Zm-6.15-2h4.15V28.92H17.14Z"/><path d="M35.93,35.08H27.78V26.92h8.15Zm-6.15-2h4.15V28.92H29.78Z"/><path d="M48.42,35.08H40.26V26.92h8.16Zm-6.16-2h4.16V28.92H42.26Z"/><path d="M23.51,46.84H15.36V38.68h8.15Zm-6.15-2h4.15V40.68H17.36Z"/><path d="M36.16,46.84H28V38.68h8.15Zm-6.15-2h4.15V40.68H30Z"/><path d="M48.64,46.84H40.49V38.68h8.15Zm-6.15-2h4.15V40.68H42.49Z"/><text x="0" y="79" fill="#000000" font-size="5px" font-weight="bold" font-family="'Helvetica Neue', Helvetica, Arial-Unicode, Arial, Sans-serif">Created by Saideep Karipalli</text><text x="0" y="84" fill="#000000" font-size="5px" font-weight="bold" font-family="'Helvetica Neue', Helvetica, Arial-Unicode, Arial, Sans-serif">from the Noun Project</text></svg>